HIERARCHY
ROOT root
{
	OFFSET 0.000000 0.000000 0.000000
	CHANNELS 6 Xposition Yposition Zposition Zrotation Yrotation Xrotation
	JOINT lhip
	{
		OFFSET 0.058581 -0.082280 -0.017664
		CHANNELS 3 Zrotation Yrotation Xrotation
		JOINT lknee
		{
			OFFSET 0.043451 -0.386469 0.008037
			CHANNELS 3 Zrotation Yrotation Xrotation
			JOINT lankle
			{
				OFFSET -0.014790 -0.426874 -0.037428
				CHANNELS 3 Zrotation Yrotation Xrotation
				JOINT ltoe
				{
					OFFSET 0.041054 -0.060286 0.122042
					CHANNELS 3 Zrotation Yrotation Xrotation
					End Site
					{
						OFFSET 0.000000 0.000000 0.000000
					}
				}
			}
		}
	}
	JOINT rhip
	{
		OFFSET -0.060310 -0.090513 -0.013543
		CHANNELS 3 Zrotation Yrotation Xrotation
		JOINT rknee
		{
			OFFSET -0.043257 -0.383688 -0.004843
			CHANNELS 3 Zrotation Yrotation Xrotation
			JOINT rankle
			{
				OFFSET 0.019056 -0.420046 -0.034562
				CHANNELS 3 Zrotation Yrotation Xrotation
				JOINT rtoe
				{
					OFFSET -0.034840 -0.062106 0.130323
					CHANNELS 3 Zrotation Yrotation Xrotation
					End Site
					{
						OFFSET 0.000000 0.000000 0.000000
					}
				}
			}
		}
	}
	JOINT lowerback
	{
		OFFSET 0.004439 0.124404 -0.038385
		CHANNELS 3 Zrotation Yrotation Xrotation
		JOINT upperback
		{
			OFFSET 0.004488 0.137956 0.026820
			CHANNELS 3 Zrotation Yrotation Xrotation
			JOINT chest
			{
				OFFSET -0.002265 0.056032 0.002855
				CHANNELS 3 Zrotation Yrotation Xrotation
				JOINT lowerneck
				{
					OFFSET -0.013390 0.211636 -0.033468
					CHANNELS 3 Zrotation Yrotation Xrotation
					JOINT upperneck
					{
						OFFSET 0.010113 0.088937 0.050410
						CHANNELS 3 Zrotation Yrotation Xrotation
						End Site
						{
							OFFSET 0.000000 0.000000 0.000000
						}
					}
				}
				JOINT lclavicle
				{
					OFFSET 0.071702 0.114000 -0.018898
					CHANNELS 3 Zrotation Yrotation Xrotation
					JOINT lshoulder
					{
						OFFSET 0.122921 0.045205 -0.019046
						CHANNELS 3 Zrotation Yrotation Xrotation
						JOINT lelbow
						{
							OFFSET 0.255332 -0.015649 -0.022946
							CHANNELS 3 Zrotation Yrotation Xrotation
							JOINT lwrist
							{
								OFFSET 0.265709 0.012698 -0.007375
								CHANNELS 3 Zrotation Yrotation Xrotation
								End Site
								{
									OFFSET 0.000000 0.000000 0.000000
								}
							}
						}
					}
				}
				JOINT rclavicle
				{
					OFFSET -0.082954 0.112472 -0.023707
					CHANNELS 3 Zrotation Yrotation Xrotation
					JOINT rshoulder
					{
						OFFSET -0.113228 0.046853 -0.008472
						CHANNELS 3 Zrotation Yrotation Xrotation
						JOINT relbow
						{
							OFFSET -0.260127 -0.014369 -0.031269
							CHANNELS 3 Zrotation Yrotation Xrotation
							JOINT rwrist
							{
								OFFSET -0.269108 0.006794 -0.006027
								CHANNELS 3 Zrotation Yrotation Xrotation
								End Site
								{
									OFFSET 0.000000 0.000000 0.000000
								}
							}
						}
					}
				}
			}
		}
	}
}
MOTION
Frames: 7
Frame Time: 0.033333
1.830545 0.311606 0.993507 -94.389368 1.160265 89.128348 -1.367691 -2.726918 3.259617 -7.280943 2.381516 49.953689 -0.837360 19.499899 7.313403 0.000000 -0.000000 0.000000 1.730769 5.210986 -24.830353 4.621455 -4.933755 17.632785 -0.269002 -8.915205 13.175427 0.000000 -0.000000 0.000000 0.063738 -6.911967 -4.176382 2.773338 -5.191702 13.321202 -2.553173 -2.602043 -0.437382 -7.583745 0.879830 20.727063 0.945973 5.356270 -9.755732 -18.623556 11.984299 3.182119 -49.111166 -0.467116 20.276965 -109.306583 -70.206077 143.561870 21.557973 -19.804044 13.945485 9.703769 -19.365896 1.467079 46.246202 -27.113541 7.846426 58.441975 70.004899 83.146404 -19.655461 15.162741 -2.900701 
1.774429 0.317839 0.972243 -96.184808 0.998003 86.856371 0.487944 -1.553959 0.319612 -6.583685 6.134080 61.942890 0.385646 20.720290 3.927346 0.000000 -0.000000 0.000000 3.569927 5.428091 -23.405620 4.152661 -3.355457 28.508053 -3.510250 -9.415527 -0.596995 0.000000 -0.000000 0.000000 -0.644401 -4.696936 -1.810041 2.873397 -3.641344 13.197646 -2.290661 -1.826879 -0.394397 -5.986096 0.220375 18.679756 0.684022 3.999747 -8.465346 -20.260269 13.538569 2.164148 -47.842832 0.476986 20.408348 -105.252091 -71.097330 139.496031 21.160777 -18.322541 15.767322 12.915566 -18.558988 -0.372778 45.286261 -26.184500 9.787807 55.088948 70.155737 79.896070 -20.654929 14.519893 -4.202602 
1.724641 0.322142 0.956119 -97.260235 0.658816 84.600193 2.112940 -1.726013 -3.674066 -6.804524 8.139282 71.091441 1.261519 21.809990 -1.020688 0.000000 -0.000000 0.000000 4.429999 5.536630 -20.084055 4.297356 -1.804143 34.428965 -5.050432 -11.117550 -9.492865 0.000000 -0.000000 0.000000 -1.613525 -2.550640 1.066322 3.019280 -2.629266 13.646731 -1.982911 -1.065120 -0.589021 -4.899171 -1.117245 16.655169 0.574917 3.510231 -7.604938 -22.419623 14.787900 1.721280 -47.078302 0.389557 19.719331 -94.780336 -73.317393 128.631807 20.542633 -16.455001 18.573559 16.437021 -17.557373 -2.305452 45.887641 -22.174282 11.052486 48.241202 69.230340 73.937158 -21.697891 13.452228 -2.242754 
1.667822 0.324575 0.948824 -97.367662 0.327271 83.233230 3.816932 -3.227897 -11.095441 -6.960375 9.144933 76.887428 2.238486 22.472437 -6.955206 0.000000 -0.000000 0.000000 4.663989 5.094966 -15.387881 4.412336 -1.170305 37.181601 -5.485368 -12.359046 -16.358417 0.000000 -0.000000 0.000000 -2.258627 -0.273291 2.616600 2.975723 -2.457139 14.540110 -2.152619 -0.258491 -1.276826 -4.296424 -2.528104 16.317447 1.258337 3.500305 -6.383585 -23.837302 16.010250 2.953440 -47.529368 0.644827 17.832329 -76.946926 -76.326137 111.188364 19.676146 -13.785032 21.048390 19.415806 -15.294489 -2.195322 49.926755 -15.214253 11.239910 40.346560 69.138452 68.218344 -22.574037 13.052062 -0.601465 
1.636626 0.325520 0.951048 -97.406971 0.319505 82.341990 4.763213 -3.701832 -15.070411 -6.873842 8.758793 76.401431 3.051129 22.832800 -9.582234 0.000000 -0.000000 0.000000 4.814433 4.481740 -11.913165 4.282454 -1.036974 37.222197 -4.833999 -12.227738 -18.393122 0.000000 -0.000000 0.000000 -2.202793 1.116803 3.961064 2.806344 -2.212873 14.690313 -2.331192 0.269863 -1.688769 -3.766906 -3.018666 16.640503 1.571031 2.850093 -5.855264 -24.147541 16.369115 3.471288 -47.875167 1.120573 16.946279 -67.438053 -77.536296 101.912579 19.586757 -13.262442 20.935597 20.484262 -13.314675 -1.884872 52.814834 -11.582472 11.549967 37.220110 69.996918 65.821150 -23.644556 13.283273 -0.926228 
1.596482 0.327386 0.957814 -97.802337 -0.118613 81.554504 5.670114 -3.884747 -19.338364 -6.629554 8.298461 70.751815 4.238719 23.044062 -10.751003 0.000000 -0.000000 0.000000 4.543601 3.505211 -7.084770 4.009094 -0.278205 35.696018 -3.559646 -11.605871 -19.744391 0.000000 -0.000000 0.000000 -2.844937 3.476423 5.127562 2.593159 -1.581178 15.095371 -2.291901 1.156395 -2.333234 -2.302176 -3.600191 17.023297 1.513619 1.445095 -4.479663 -23.421906 16.652938 3.829825 -48.561712 1.676180 16.636946 -58.123327 -78.337388 93.557973 19.305069 -12.573523 20.679580 20.931420 -10.933915 -1.429433 56.387644 -7.160215 12.777208 34.006931 71.774073 63.888603 -24.310723 13.079770 -1.065427 
1.557120 0.329524 0.965935 -98.047048 -0.869041 81.975812 6.225383 -3.854165 -22.838622 -6.559260 8.013603 60.195803 4.913290 22.499459 -9.218662 0.000000 -0.000000 0.000000 3.847755 2.472870 -3.325526 3.476873 0.655296 33.399668 -2.265182 -10.792103 -20.109852 0.000000 -0.000000 0.000000 -4.094585 5.996841 4.895434 2.268627 -0.903279 15.437688 -2.153939 2.106806 -3.248236 -0.883833 -4.214602 17.541060 2.007274 -0.505418 -3.415594 -22.094005 16.663667 4.139427 -48.669430 2.403161 16.814794 -54.461712 -78.696911 90.718157 19.093957 -12.588461 19.698628 20.991688 -8.972750 -0.815543 59.140471 -3.844251 14.106437 32.397165 74.119596 63.185803 -24.613064 13.261874 -1.861860 
